<!DOCTYPE svg PUBLIC "-//W3C//DTD SVG 1.1//EN" "http://www.w3.org/Graphics/SVG/1.1/DTD/svg11.dtd">

<!-- Uploaded to: SVG Repo, www.svgrepo.com, Transformed by: SVG Repo Mixer Tools -->
<svg height="800px" width="800px" version="1.1" id="Layer_1" xmlns="http://www.w3.org/2000/svg" xmlns:xlink="http://www.w3.org/1999/xlink" viewBox="0 0 512 512" xml:space="preserve" fill="#000000">

<g id="SVGRepo_bgCarrier" stroke-width="0"/>

<g id="SVGRepo_tracerCarrier" stroke-linecap="round" stroke-linejoin="round"/>

<g id="SVGRepo_iconCarrier"> <circle style="fill:#fff;" cx="243.793" cy="191.991" r="106.247"/> <path style="fill:#2E5E82;" d="M243.793,312.597c-66.502,0-120.605-54.103-120.605-120.605S177.291,71.388,243.793,71.388 s120.605,54.103,120.605,120.605S310.295,312.597,243.793,312.597z M243.793,100.103c-50.668,0-91.889,41.221-91.889,91.889 s41.221,91.889,91.889,91.889s91.889-41.221,91.889-91.889S294.461,100.103,243.793,100.103z"/> <circle style="fill:#fff;" cx="356.013" cy="408.448" r="89.19"/> <path style="fill:#2E5E82;" d="M401.596,315.512c22.243-44.739,33.547-86.452,33.547-124.163C435.142,85.839,349.303,0,243.793,0 c-35.904,0-70.907,10.007-101.223,28.938c-6.727,4.2-8.773,13.057-4.573,19.783c4.2,6.727,13.057,8.773,19.783,4.573 c25.749-16.079,55.491-24.579,86.013-24.579c89.675,0,162.633,72.957,162.633,162.634c0,34.28-10.912,72.982-32.425,115.156 c-5.848-1.029-11.854-1.598-17.993-1.598c-57.095,0-103.545,46.45-103.545,103.545c0,17.389,4.329,33.778,11.934,48.182 c-8.251,8.773-15.341,15.933-20.57,21.081C207.444,441.672,81.161,308.122,81.161,191.348c0-30.078,8.27-59.451,23.916-84.943 c4.148-6.758,2.033-15.6-4.727-19.746c-6.755-4.148-15.598-2.033-19.746,4.727c-18.422,30.013-28.158,64.58-28.158,99.964 c0,62.752,30.75,135.307,91.394,215.651c44.52,58.983,88.393,99.516,90.24,101.212c2.747,2.524,6.231,3.788,9.716,3.788 c3.475,0,6.949-1.255,9.693-3.766c0.554-0.508,11.572-10.623,28.059-27.937C300.39,499.82,326.796,512,356.009,512 c57.096,0,103.546-46.45,103.546-103.546C459.553,367.711,435.892,332.404,401.596,315.512z M370.366,481.888v-23.581 c0-7.93-6.428-14.358-14.358-14.358s-14.358,6.428-14.358,14.358v23.581c-19.529-3.812-36.361-15.239-47.273-31.059 c-0.202-0.319-0.412-0.633-0.642-0.939c-5.384-8.065-9.238-17.229-11.16-27.079h23.581c7.93,0,14.358-6.428,14.358-14.358 s-6.428-14.358-14.358-14.358h-23.581c5.809-29.765,29.31-53.266,59.075-59.075v23.581c0,7.93,6.428,14.358,14.358,14.358 s14.358-6.428,14.358-14.358v-23.581c29.765,5.809,53.267,29.31,59.076,59.075h-23.581c-7.93,0-14.358,6.428-14.358,14.358 s6.428,14.358,14.358,14.358h23.581C423.632,452.576,400.131,476.077,370.366,481.888z"/> </g>

</svg>
